# xmcd
# 
# Track frame offsets:
#     150
#     27636
#     66315
#     74134
#     106603
#     114923
#     121505
#     126373
#     136056
#     151283
#     179004
#     204196
#     214107
#     230958
# 
# Disc length: 3347
# 
# Revision: 0
# Processed by: cddbd v1.5.2PL0 Copyright (c) Steve Scherf et al.
# Submitted via: fre:ac v1.0.31
# 
DISCID=cd0d110e
DTITLE=New Orleans Musica da Camera - Les Motés d'Arras: the Songs of Arras
DYEAR=2000
DGENRE=Chorus
TTITLE0=Jean Bodel: Les un pin verdoiant (Pastourelle)
TTITLE1=Lambert Ferri and Jehan Bretel: Princes del Pui selonc vostre pensee
TTITLE2=Jean Bodel: Contre le douz tans novel
TTITLE3=Adam de la Halle: D'amourous cuer vol canter
TTITLE4=Adam de la Halle: Three Rondeaux - Fines amouretes ai
TTITLE5=Adam de la Halle: Three Rondeaux - Je muir d'amourete
TTITLE6=Adam de la Halle: Three Rondeaux - Bonne amourette
TTITLE7=(Anon.): Two ductias (Dances)
TTITLE8=Moinot d'Arras
TTITLE9=Jehan Bretel and Adam de la Halle: Adan, vaurries vous manoir
TTITLE10=Gautier de Dargies: Desque ci ai touz jorz chante
TTITLE11=(Anon.): Les fratrasies d'Arras
TTITLE12=Andrieu Contredit
TTITLE13=(Anon.): La prime estampie royal
EXTD=
EXTT0=
EXTT1=
EXTT2=
EXTT3=
EXTT4=
EXTT5=
EXTT6=
EXTT7=
EXTT8=
EXTT9=
EXTT10=
EXTT11=
EXTT12=
EXTT13=
PLAYORDER=
